<?xml version="1.0" encoding="UTF-8"?>
<!DOCTYPE svg PUBLIC "-//W3C//DTD SVG 1.1//EN" "http://www.w3.org/Graphics/SVG/1.1/DTD/svg11.dtd">
<svg xmlns="http://www.w3.org/2000/svg" version="1.1" width="137px" height="30px" style="shape-rendering:geometricPrecision; text-rendering:geometricPrecision; image-rendering:optimizeQuality; fill-rule:evenodd; clip-rule:evenodd" xmlns:xlink="http://www.w3.org/1999/xlink">
<g><path style="opacity:0.942" fill="#fecd5e" d="M 17.5,-0.5 C 18.8333,-0.5 20.1667,-0.5 21.5,-0.5C 21.5,3.5 21.5,7.5 21.5,11.5C 20.5,13.1667 19.1667,14.5 17.5,15.5C 17.5,10.1667 17.5,4.83333 17.5,-0.5 Z"/></g>
<g><path style="opacity:0.892" fill="#fdcc5e" d="M 16.5,15.5 C 16.631,16.2389 16.4643,16.9056 16,17.5C 13.6506,14.9832 11.1506,12.6499 8.5,10.5C 6.14419,13.1864 3.81085,15.853 1.5,18.5C 1.5,14.8333 1.5,11.1667 1.5,7.5C 3.16667,7.5 4.83333,7.5 6.5,7.5C 6.5,6.5 6.5,5.5 6.5,4.5C 9.83333,3.83333 13.1667,3.16667 16.5,2.5C 16.5,6.83333 16.5,11.1667 16.5,15.5 Z"/></g>
<g><path style="opacity:0.907" fill="#3bfd35" d="M 22.5,15.5 C 21.8333,15.5 21.5,15.8333 21.5,16.5C 20.8333,16.5 20.5,16.8333 20.5,17.5C 19.8333,17.5 19.5,17.8333 19.5,18.5C 18.8333,18.5 18.5,18.8333 18.5,19.5C 17.8333,19.5 17.5,19.8333 17.5,20.5C 16.8333,20.5 16.5,20.8333 16.5,21.5C 16.1667,21.5 15.8333,21.5 15.5,21.5C 15.5,20.8333 15.1667,20.5 14.5,20.5C 14.5,19.8333 14.1667,19.5 13.5,19.5C 13.5,18.8333 13.1667,18.5 12.5,18.5C 12.5,17.8333 12.1667,17.5 11.5,17.5C 11.5,16.8333 11.1667,16.5 10.5,16.5C 10.5,15.8333 10.1667,15.5 9.5,15.5C 8.83333,14.1667 8.16667,14.1667 7.5,15.5C 6.83333,15.5 6.5,15.8333 6.5,16.5C 5.83333,16.5 5.5,16.8333 5.5,17.5C 4.83333,17.5 4.5,17.8333 4.5,18.5C 3.83333,18.5 3.5,18.8333 3.5,19.5C 2.83333,19.5 2.5,19.8333 2.5,20.5C 1.83333,20.8333 1.16667,21.1667 0.5,21.5C 0.166667,21.5 -0.166667,21.5 -0.5,21.5C -0.5,21.1667 -0.5,20.8333 -0.5,20.5C 0.5,20.1667 1.16667,19.5 1.5,18.5C 3.81085,15.853 6.14419,13.1864 8.5,10.5C 11.1506,12.6499 13.6506,14.9832 16,17.5C 16.4643,16.9056 16.631,16.2389 16.5,15.5C 16.8333,15.5 17.1667,15.5 17.5,15.5C 19.1667,14.5 20.5,13.1667 21.5,11.5C 23.2327,10.9924 23.566,10.159 22.5,9C 24.1012,8.72662 25.6012,8.22662 27,7.5C 27.6667,8.83333 27.6667,10.1667 27,11.5C 25.0077,12.3281 23.5077,13.6614 22.5,15.5 Z"/></g>
<g><path style="opacity:0.646" fill="#fefffe" d="M 30.5,7.5 C 33.4822,7.10445 36.1489,7.77111 38.5,9.5C 39.7362,8.75415 41.0695,8.42082 42.5,8.5C 42.4914,10.3084 42.9914,11.9751 44,13.5C 47.1305,10.8783 50.2972,10.8783 53.5,13.5C 56.3714,10.887 59.2047,10.887 62,13.5C 62.4955,11.5273 62.6621,9.5273 62.5,7.5C 63.8333,7.5 65.1667,7.5 66.5,7.5C 66.3398,9.19919 66.5065,10.8659 67,12.5C 68.3876,11.4464 69.8876,11.2797 71.5,12C 69.0321,14.7158 69.0321,17.5492 71.5,20.5C 69.2183,21.9004 67.7183,21.2337 67,18.5C 66.5172,19.448 66.3505,20.448 66.5,21.5C 64.549,21.7733 63.049,21.1066 62,19.5C 59.2047,22.113 56.3714,22.113 53.5,19.5C 52.1476,20.8962 50.4809,21.5629 48.5,21.5C 46.2795,20.3984 44.1129,20.3984 42,21.5C 40.2894,21.5607 38.956,20.8941 38,19.5C 35.8471,21.4439 33.3471,21.9439 30.5,21C 28.9632,19.8904 28.2965,18.3904 28.5,16.5C 30.9806,16.3234 32.8139,17.3234 34,19.5C 34.1667,19 34.3333,18.5 34.5,18C 32.8258,16.0652 30.9924,14.2318 29,12.5C 28.3872,10.5048 28.8872,8.83814 30.5,7.5 Z M 37.5,13.5 C 35.5767,13.205 33.9101,12.3717 32.5,11C 34.8287,10.6045 36.4954,11.4378 37.5,13.5 Z M 57.5,13.5 C 58.937,14.7255 60.6036,15.7255 62.5,16.5C 61.0095,17.2436 59.5095,17.9103 58,18.5C 57.5065,16.8659 57.3398,15.1992 57.5,13.5 Z M 47.5,14.5 C 48.5862,14.62 49.2528,15.2867 49.5,16.5C 49.1667,17.1667 48.8333,17.8333 48.5,18.5C 47.5713,17.3112 47.238,15.9778 47.5,14.5 Z"/></g>
<g><path style="opacity:0.66" fill="#fefffe" d="M 71.5,7.5 C 74.8984,7.17964 78.2317,7.51298 81.5,8.5C 80.675,9.38568 79.675,9.71901 78.5,9.5C 78.5,13.5 78.5,17.5 78.5,21.5C 77.1667,21.5 75.8333,21.5 74.5,21.5C 74.5,17.5 74.5,13.5 74.5,9.5C 72.8212,9.71481 71.8212,9.04814 71.5,7.5 Z"/></g>
<g><path style="opacity:0.652" fill="#fefffe" d="M 114.5,19.5 C 112.768,22.1121 111.268,21.7787 110,18.5C 109.517,19.448 109.351,20.448 109.5,21.5C 107.549,21.7733 106.049,21.1066 105,19.5C 102.333,22.1667 99.6667,22.1667 97,19.5C 94.5301,21.4865 91.6967,21.9865 88.5,21C 87.3502,17.5954 88.6836,15.4287 92.5,14.5C 90.4476,14.2947 88.1143,14.2947 85.5,14.5C 85.5,16.8333 85.5,19.1667 85.5,21.5C 84.1667,21.5 82.8333,21.5 81.5,21.5C 81.5,18.1667 81.5,14.8333 81.5,11.5C 85.3158,11.9236 88.9825,11.9236 92.5,11.5C 94.0441,11.7896 95.3774,12.4563 96.5,13.5C 99.3714,10.887 102.205,10.887 105,13.5C 105.495,11.5273 105.662,9.5273 105.5,7.5C 106.833,7.5 108.167,7.5 109.5,7.5C 109.34,9.19919 109.506,10.8659 110,12.5C 111.388,11.4464 112.888,11.2797 114.5,12C 111.933,14.5388 111.933,17.0388 114.5,19.5 Z M 100.5,13.5 C 101.937,14.7255 103.604,15.7255 105.5,16.5C 104.009,17.2436 102.509,17.9103 101,18.5C 100.506,16.8659 100.34,15.1992 100.5,13.5 Z"/></g>
<g><path style="opacity:0.675" fill="#fefffe" d="M 114.5,19.5 C 113.804,12.0026 116.637,10.0026 123,13.5C 125.179,11.3628 127.679,11.0295 130.5,12.5C 128.041,14.9267 127.041,17.9267 127.5,21.5C 125.549,21.7733 124.049,21.1066 123,19.5C 120.22,22.0153 117.386,22.0153 114.5,19.5 Z M 118.5,17.5 C 124.853,17.4526 125.02,18.1192 119,19.5C 118.536,18.9056 118.369,18.2389 118.5,17.5 Z"/></g>
<g><path style="opacity:0.87" fill="#00b4ff" d="M 7.5,15.5 C 8.16667,15.5 8.83333,15.5 9.5,15.5C 10.1667,15.5 10.5,15.8333 10.5,16.5C 11.1667,16.5 11.5,16.8333 11.5,17.5C 12.1667,17.5 12.5,17.8333 12.5,18.5C 13.1667,18.5 13.5,18.8333 13.5,19.5C 14.1667,19.5 14.5,19.8333 14.5,20.5C 15.1667,20.5 15.5,20.8333 15.5,21.5C 15.8333,22.8333 16.1667,22.8333 16.5,21.5C 17.1667,21.5 17.5,21.1667 17.5,20.5C 18.1667,20.5 18.5,20.1667 18.5,19.5C 19.1667,19.5 19.5,19.1667 19.5,18.5C 20.1667,18.5 20.5,18.1667 20.5,17.5C 21.1667,17.5 21.5,17.1667 21.5,16.5C 22.1667,16.5 22.5,16.1667 22.5,15.5C 24.288,15.2148 25.9547,15.5481 27.5,16.5C 26.314,22.5618 22.9807,26.8951 17.5,29.5C 13.8333,29.5 10.1667,29.5 6.5,29.5C 4.84866,28.0299 3.01533,26.6966 1,25.5C 0.50999,24.2068 0.343323,22.8734 0.5,21.5C 1.16667,21.1667 1.83333,20.8333 2.5,20.5C 3.16667,20.5 3.5,20.1667 3.5,19.5C 4.16667,19.5 4.5,19.1667 4.5,18.5C 5.16667,18.5 5.5,18.1667 5.5,17.5C 6.16667,17.5 6.5,17.1667 6.5,16.5C 7.16667,16.5 7.5,16.1667 7.5,15.5 Z M 22.5,17.5 C 23.4646,18.7211 23.298,20.0544 22,21.5C 20.6667,22.8333 19.3333,24.1667 18,25.5C 19.1413,22.8021 20.6413,20.1354 22.5,17.5 Z M 7.5,19.5 C 10.5628,21.0512 13.2295,23.2179 15.5,26C 12.0357,26.8166 8.70238,26.4833 5.5,25C 5.04265,24.586 4.70931,24.086 4.5,23.5C 5.52435,22.1482 6.52435,20.8149 7.5,19.5 Z"/></g>
</svg>
